<mxfile host="app.diagrams.net" modified="2022-12-28T21:27:54.077Z" agent="5.0 (Windows NT 10.0; Win64; x64) AppleWebKit/537.36 (KHTML, like Gecko) Chrome/107.0.0.0 Safari/537.36 OPR/93.0.0.0 (Edition Yx GX)" version="20.7.4" etag="JT_uMv6BxAsF_47SIR_F" type="github">
  <diagram id="Yl1o0pb7-FipGXljcI7x" name="Страница 1">
    <mxGraphModel dx="1393" dy="789" grid="1" gridSize="10" guides="1" tooltips="1" connect="1" arrows="1" fold="1" page="1" pageScale="1" pageWidth="827" pageHeight="1169" math="0" shadow="0">
      <root>
        <mxCell id="0" />
        <mxCell id="1" parent="0" />
        <mxCell id="ISPT51EQEnlbNFwA-HcZ-1" style="edgeStyle=orthogonalEdgeStyle;rounded=0;orthogonalLoop=1;jettySize=auto;html=1;exitX=0;exitY=0.25;exitDx=0;exitDy=0;entryX=0.25;entryY=0;entryDx=0;entryDy=0;fontSize=16;" edge="1" parent="1" source="ISPT51EQEnlbNFwA-HcZ-2" target="ISPT51EQEnlbNFwA-HcZ-7">
          <mxGeometry relative="1" as="geometry" />
        </mxCell>
        <mxCell id="ISPT51EQEnlbNFwA-HcZ-16" style="edgeStyle=orthogonalEdgeStyle;rounded=0;orthogonalLoop=1;jettySize=auto;html=1;exitX=0.75;exitY=1;exitDx=0;exitDy=0;entryX=0.75;entryY=0;entryDx=0;entryDy=0;" edge="1" parent="1" source="ISPT51EQEnlbNFwA-HcZ-2" target="ISPT51EQEnlbNFwA-HcZ-3">
          <mxGeometry relative="1" as="geometry" />
        </mxCell>
        <mxCell id="ISPT51EQEnlbNFwA-HcZ-23" style="edgeStyle=orthogonalEdgeStyle;rounded=0;orthogonalLoop=1;jettySize=auto;html=1;exitX=0.75;exitY=1;exitDx=0;exitDy=0;entryX=0.25;entryY=0;entryDx=0;entryDy=0;fontSize=16;" edge="1" parent="1" source="ISPT51EQEnlbNFwA-HcZ-2" target="ISPT51EQEnlbNFwA-HcZ-17">
          <mxGeometry relative="1" as="geometry">
            <Array as="points">
              <mxPoint x="560" y="140" />
            </Array>
          </mxGeometry>
        </mxCell>
        <mxCell id="ISPT51EQEnlbNFwA-HcZ-33" style="edgeStyle=orthogonalEdgeStyle;rounded=0;orthogonalLoop=1;jettySize=auto;html=1;exitX=1;exitY=0.75;exitDx=0;exitDy=0;entryX=0.25;entryY=0;entryDx=0;entryDy=0;fontSize=16;" edge="1" parent="1" source="ISPT51EQEnlbNFwA-HcZ-2" target="ISPT51EQEnlbNFwA-HcZ-28">
          <mxGeometry relative="1" as="geometry" />
        </mxCell>
        <mxCell id="ISPT51EQEnlbNFwA-HcZ-2" value="&lt;font style=&quot;font-size: 16px;&quot;&gt;Admin&lt;/font&gt;" style="rounded=1;whiteSpace=wrap;html=1;" vertex="1" parent="1">
          <mxGeometry x="360" y="60" width="120" height="80" as="geometry" />
        </mxCell>
        <mxCell id="ISPT51EQEnlbNFwA-HcZ-25" style="edgeStyle=orthogonalEdgeStyle;rounded=0;orthogonalLoop=1;jettySize=auto;html=1;exitX=1;exitY=0.25;exitDx=0;exitDy=0;entryX=0.25;entryY=1;entryDx=0;entryDy=0;fontSize=16;" edge="1" parent="1" source="ISPT51EQEnlbNFwA-HcZ-3" target="ISPT51EQEnlbNFwA-HcZ-24">
          <mxGeometry relative="1" as="geometry" />
        </mxCell>
        <mxCell id="ISPT51EQEnlbNFwA-HcZ-32" style="edgeStyle=orthogonalEdgeStyle;rounded=0;orthogonalLoop=1;jettySize=auto;html=1;exitX=1;exitY=0.75;exitDx=0;exitDy=0;entryX=0.5;entryY=1;entryDx=0;entryDy=0;fontSize=16;" edge="1" parent="1" source="ISPT51EQEnlbNFwA-HcZ-3" target="ISPT51EQEnlbNFwA-HcZ-30">
          <mxGeometry relative="1" as="geometry" />
        </mxCell>
        <mxCell id="ISPT51EQEnlbNFwA-HcZ-3" value="User" style="rounded=1;whiteSpace=wrap;html=1;fontSize=16;" vertex="1" parent="1">
          <mxGeometry x="360" y="440" width="120" height="40" as="geometry" />
        </mxCell>
        <mxCell id="ISPT51EQEnlbNFwA-HcZ-4" value="" style="endArrow=classic;html=1;rounded=0;fontSize=16;exitX=0;exitY=0.5;exitDx=0;exitDy=0;entryX=0.5;entryY=1;entryDx=0;entryDy=0;" edge="1" parent="1" source="ISPT51EQEnlbNFwA-HcZ-3" target="ISPT51EQEnlbNFwA-HcZ-5">
          <mxGeometry width="50" height="50" relative="1" as="geometry">
            <mxPoint x="390" y="430" as="sourcePoint" />
            <mxPoint x="120" y="360" as="targetPoint" />
            <Array as="points">
              <mxPoint x="140" y="460" />
            </Array>
          </mxGeometry>
        </mxCell>
        <mxCell id="ISPT51EQEnlbNFwA-HcZ-5" value="Жалоба" style="rounded=1;whiteSpace=wrap;html=1;fontSize=16;" vertex="1" parent="1">
          <mxGeometry x="80" y="330" width="120" height="40" as="geometry" />
        </mxCell>
        <mxCell id="ISPT51EQEnlbNFwA-HcZ-6" style="edgeStyle=orthogonalEdgeStyle;rounded=0;orthogonalLoop=1;jettySize=auto;html=1;exitX=0.75;exitY=0;exitDx=0;exitDy=0;entryX=0;entryY=0.75;entryDx=0;entryDy=0;fontSize=16;" edge="1" parent="1" source="ISPT51EQEnlbNFwA-HcZ-7" target="ISPT51EQEnlbNFwA-HcZ-2">
          <mxGeometry relative="1" as="geometry" />
        </mxCell>
        <mxCell id="ISPT51EQEnlbNFwA-HcZ-7" value="Обработка жалоб" style="rounded=1;whiteSpace=wrap;html=1;fontSize=16;" vertex="1" parent="1">
          <mxGeometry x="80" y="240" width="120" height="40" as="geometry" />
        </mxCell>
        <mxCell id="ISPT51EQEnlbNFwA-HcZ-8" value="" style="endArrow=classic;html=1;rounded=0;fontSize=16;exitX=0.5;exitY=0;exitDx=0;exitDy=0;entryX=0.5;entryY=1;entryDx=0;entryDy=0;" edge="1" parent="1" source="ISPT51EQEnlbNFwA-HcZ-5" target="ISPT51EQEnlbNFwA-HcZ-7">
          <mxGeometry width="50" height="50" relative="1" as="geometry">
            <mxPoint x="390" y="430" as="sourcePoint" />
            <mxPoint x="440" y="380" as="targetPoint" />
          </mxGeometry>
        </mxCell>
        <mxCell id="ISPT51EQEnlbNFwA-HcZ-20" style="edgeStyle=orthogonalEdgeStyle;rounded=0;orthogonalLoop=1;jettySize=auto;html=1;exitX=0.25;exitY=1;exitDx=0;exitDy=0;entryX=1;entryY=0.5;entryDx=0;entryDy=0;" edge="1" parent="1" source="ISPT51EQEnlbNFwA-HcZ-9" target="ISPT51EQEnlbNFwA-HcZ-5">
          <mxGeometry relative="1" as="geometry" />
        </mxCell>
        <mxCell id="ISPT51EQEnlbNFwA-HcZ-9" value="Все посты пользователей" style="rounded=1;whiteSpace=wrap;html=1;fontSize=16;" vertex="1" parent="1">
          <mxGeometry x="240" y="230" width="120" height="60" as="geometry" />
        </mxCell>
        <mxCell id="ISPT51EQEnlbNFwA-HcZ-10" value="" style="endArrow=classic;html=1;rounded=0;fontSize=16;exitX=1;exitY=0.5;exitDx=0;exitDy=0;entryX=0;entryY=0.5;entryDx=0;entryDy=0;" edge="1" parent="1" source="ISPT51EQEnlbNFwA-HcZ-7" target="ISPT51EQEnlbNFwA-HcZ-9">
          <mxGeometry width="50" height="50" relative="1" as="geometry">
            <mxPoint x="390" y="410" as="sourcePoint" />
            <mxPoint x="440" y="360" as="targetPoint" />
          </mxGeometry>
        </mxCell>
        <mxCell id="ISPT51EQEnlbNFwA-HcZ-11" value="" style="endArrow=classic;html=1;rounded=0;fontSize=16;exitX=0.25;exitY=1;exitDx=0;exitDy=0;entryX=0.5;entryY=0;entryDx=0;entryDy=0;" edge="1" parent="1" source="ISPT51EQEnlbNFwA-HcZ-2" target="ISPT51EQEnlbNFwA-HcZ-9">
          <mxGeometry width="50" height="50" relative="1" as="geometry">
            <mxPoint x="390" y="410" as="sourcePoint" />
            <mxPoint x="440" y="360" as="targetPoint" />
            <Array as="points">
              <mxPoint x="300" y="140" />
            </Array>
          </mxGeometry>
        </mxCell>
        <mxCell id="ISPT51EQEnlbNFwA-HcZ-12" value="" style="endArrow=classic;html=1;rounded=0;fontSize=16;exitX=0.5;exitY=1;exitDx=0;exitDy=0;entryX=0.25;entryY=0;entryDx=0;entryDy=0;" edge="1" parent="1" source="ISPT51EQEnlbNFwA-HcZ-9" target="ISPT51EQEnlbNFwA-HcZ-3">
          <mxGeometry width="50" height="50" relative="1" as="geometry">
            <mxPoint x="390" y="410" as="sourcePoint" />
            <mxPoint x="440" y="360" as="targetPoint" />
            <Array as="points">
              <mxPoint x="300" y="400" />
              <mxPoint x="390" y="400" />
            </Array>
          </mxGeometry>
        </mxCell>
        <mxCell id="ISPT51EQEnlbNFwA-HcZ-13" value="" style="endArrow=classic;html=1;rounded=0;fontSize=16;exitX=0.5;exitY=0;exitDx=0;exitDy=0;" edge="1" parent="1" source="ISPT51EQEnlbNFwA-HcZ-3" target="ISPT51EQEnlbNFwA-HcZ-15">
          <mxGeometry width="50" height="50" relative="1" as="geometry">
            <mxPoint x="390" y="410" as="sourcePoint" />
            <mxPoint x="460" y="360" as="targetPoint" />
            <Array as="points">
              <mxPoint x="420" y="380" />
              <mxPoint x="380" y="380" />
            </Array>
          </mxGeometry>
        </mxCell>
        <mxCell id="ISPT51EQEnlbNFwA-HcZ-14" style="edgeStyle=orthogonalEdgeStyle;rounded=0;orthogonalLoop=1;jettySize=auto;html=1;exitX=0.25;exitY=0;exitDx=0;exitDy=0;entryX=0.75;entryY=1;entryDx=0;entryDy=0;fontSize=16;" edge="1" parent="1" source="ISPT51EQEnlbNFwA-HcZ-15" target="ISPT51EQEnlbNFwA-HcZ-9">
          <mxGeometry relative="1" as="geometry" />
        </mxCell>
        <mxCell id="ISPT51EQEnlbNFwA-HcZ-15" value="Создание поста" style="rounded=1;whiteSpace=wrap;html=1;fontSize=16;" vertex="1" parent="1">
          <mxGeometry x="320" y="320" width="120" height="40" as="geometry" />
        </mxCell>
        <mxCell id="ISPT51EQEnlbNFwA-HcZ-35" style="edgeStyle=orthogonalEdgeStyle;rounded=0;orthogonalLoop=1;jettySize=auto;html=1;exitX=0.75;exitY=1;exitDx=0;exitDy=0;entryX=0;entryY=0.75;entryDx=0;entryDy=0;fontSize=16;" edge="1" parent="1" source="ISPT51EQEnlbNFwA-HcZ-17" target="ISPT51EQEnlbNFwA-HcZ-30">
          <mxGeometry relative="1" as="geometry" />
        </mxCell>
        <mxCell id="ISPT51EQEnlbNFwA-HcZ-36" style="edgeStyle=orthogonalEdgeStyle;rounded=0;orthogonalLoop=1;jettySize=auto;html=1;exitX=0.75;exitY=1;exitDx=0;exitDy=0;entryX=1;entryY=0.5;entryDx=0;entryDy=0;fontSize=16;" edge="1" parent="1" source="ISPT51EQEnlbNFwA-HcZ-17" target="ISPT51EQEnlbNFwA-HcZ-3">
          <mxGeometry relative="1" as="geometry" />
        </mxCell>
        <mxCell id="ISPT51EQEnlbNFwA-HcZ-17" value="&lt;font style=&quot;font-size: 16px;&quot;&gt;Комментарии к постам&lt;/font&gt;" style="rounded=1;whiteSpace=wrap;html=1;" vertex="1" parent="1">
          <mxGeometry x="530" y="230" width="120" height="60" as="geometry" />
        </mxCell>
        <mxCell id="ISPT51EQEnlbNFwA-HcZ-26" style="edgeStyle=orthogonalEdgeStyle;rounded=0;orthogonalLoop=1;jettySize=auto;html=1;exitX=0.75;exitY=0;exitDx=0;exitDy=0;entryX=0.25;entryY=1;entryDx=0;entryDy=0;fontSize=16;" edge="1" parent="1" source="ISPT51EQEnlbNFwA-HcZ-24" target="ISPT51EQEnlbNFwA-HcZ-17">
          <mxGeometry relative="1" as="geometry" />
        </mxCell>
        <mxCell id="ISPT51EQEnlbNFwA-HcZ-24" value="Оставить комментарий" style="rounded=1;whiteSpace=wrap;html=1;fontSize=16;" vertex="1" parent="1">
          <mxGeometry x="480" y="320" width="120" height="40" as="geometry" />
        </mxCell>
        <mxCell id="ISPT51EQEnlbNFwA-HcZ-29" style="edgeStyle=orthogonalEdgeStyle;rounded=0;orthogonalLoop=1;jettySize=auto;html=1;exitX=0;exitY=0.5;exitDx=0;exitDy=0;entryX=1;entryY=0.5;entryDx=0;entryDy=0;fontSize=16;" edge="1" parent="1" source="ISPT51EQEnlbNFwA-HcZ-28" target="ISPT51EQEnlbNFwA-HcZ-17">
          <mxGeometry relative="1" as="geometry" />
        </mxCell>
        <mxCell id="ISPT51EQEnlbNFwA-HcZ-34" style="edgeStyle=orthogonalEdgeStyle;rounded=0;orthogonalLoop=1;jettySize=auto;html=1;exitX=0.75;exitY=0;exitDx=0;exitDy=0;entryX=1;entryY=0.25;entryDx=0;entryDy=0;fontSize=16;" edge="1" parent="1" source="ISPT51EQEnlbNFwA-HcZ-28" target="ISPT51EQEnlbNFwA-HcZ-2">
          <mxGeometry relative="1" as="geometry" />
        </mxCell>
        <mxCell id="ISPT51EQEnlbNFwA-HcZ-28" value="Обработка жалоб" style="rounded=1;whiteSpace=wrap;html=1;fontSize=16;" vertex="1" parent="1">
          <mxGeometry x="690" y="240" width="120" height="40" as="geometry" />
        </mxCell>
        <mxCell id="ISPT51EQEnlbNFwA-HcZ-31" style="edgeStyle=orthogonalEdgeStyle;rounded=0;orthogonalLoop=1;jettySize=auto;html=1;exitX=0.5;exitY=0;exitDx=0;exitDy=0;entryX=0.5;entryY=1;entryDx=0;entryDy=0;fontSize=16;" edge="1" parent="1" source="ISPT51EQEnlbNFwA-HcZ-30" target="ISPT51EQEnlbNFwA-HcZ-28">
          <mxGeometry relative="1" as="geometry" />
        </mxCell>
        <mxCell id="ISPT51EQEnlbNFwA-HcZ-30" value="Жалоба" style="rounded=1;whiteSpace=wrap;html=1;fontSize=16;" vertex="1" parent="1">
          <mxGeometry x="690" y="320" width="120" height="40" as="geometry" />
        </mxCell>
      </root>
    </mxGraphModel>
  </diagram>
</mxfile>
